<svg xmlns="http://www.w3.org/2000/svg" width="40" height="40" viewBox="0 0 40 40">
    <path class="cls-1"
          d="M1101,3620.94V3627a3,3,0,0,1-3,3h-8a3,3,0,0,1-3-3v-6.06a12.974,12.974,0,0,1,0-21.88V3593a3,3,0,0,1,3-3h8a3,3,0,0,1,3,3v6.06A12.974,12.974,0,0,1,1101,3620.94Zm-12,6.06a1,1,0,0,0,1,1h8a1,1,0,0,0,1-1v-5a13,13,0,0,1-10,0v5Zm10-34a1,1,0,0,0-1-1h-8a1,1,0,0,0-1,1v5a13,13,0,0,1,10,0v-5Zm-5,6a11,11,0,1,0,11,11A10.994,10.994,0,0,0,1094,3599Zm7.5,7.87-5.5,3.15a2,2,0,0,1-3.99.11l-2.39-1.21a0.991,0.991,0,0,1-.53-1.31,1.014,1.014,0,0,1,1.32-.53l2.48,1.26a1.942,1.942,0,0,1,1.11-.34,2,2,0,0,1,1,.28l5.5-3.15a0.993,0.993,0,0,1,1.37.37A1.01,1.01,0,0,1,1101.5,3606.87Zm-20.91,11.2c-0.19.09-.39,0.16-0.59,0.24V3627a3,3,0,0,1-3,3h-1a3,3,0,0,1-3-3v-8.67a9.5,9.5,0,0,1,0-17.66V3593a3,3,0,0,1,3-3h1a3,3,0,0,1,3,3v7.69c0.2,0.08.4,0.15,0.59,0.24a15.768,15.768,0,0,0-.99,1.75,7.5,7.5,0,1,0,0,13.64A15.768,15.768,0,0,0,1080.59,3618.07Zm-2.59-17.93V3593a1,1,0,0,0-1-1h-1a1,1,0,0,0-1,1v7.13A8.4,8.4,0,0,1,1078,3600.14Zm-3,18.73V3627a1,1,0,0,0,1,1h1a1,1,0,0,0,1-1v-8.14A8.4,8.4,0,0,1,1075,3618.87Zm2.94-9.08a1.466,1.466,0,0,1-2.84.19l-2.51-1.09a1,1,0,0,1-.53-1.31,1.014,1.014,0,0,1,1.32-.53l2.51,1.09a1.368,1.368,0,0,1,.61-0.14,1.29,1.29,0,0,1,.39.08l1.28-.73a15.211,15.211,0,0,0-.17,2.15h0c0,0.08.01,0.16,0.01,0.25Z"
          transform="translate(-1067 -3590)"/>
    <path class="cls-2"
          d="M1096,3622a10,10,0,1,1,10-10A10,10,0,0,1,1096,3622Zm-22-4h5v11h-5v-11Zm0-27h5v11h-5v-11Z"
          transform="translate(-1067 -3590)"/>
</svg>