<svg xmlns="http://www.w3.org/2000/svg" width="40" height="40" viewBox="0 0 40 40">
    <path class="cls-1"
          d="M167,1419h-6a1,1,0,0,1,0-2h6a3,3,0,0,0,3-3v-1h-9a1,1,0,0,1,0-2h9v-3h-1v-1h1v-3h-1v-1h1v-3h-1v-1h1v-3H153a0.908,0.908,0,0,0-1,0,1,1,0,0,1-1-1v-2a5,5,0,0,1,5-5h11a5,5,0,0,1,5,5v21A5,5,0,0,1,167,1419Zm3-26a3,3,0,0,0-3-3H156a3,3,0,0,0-3,3v1h17v-1Zm-19.508-6.11L142,1381.78V1417h1a1,1,0,0,1,0,2h-9a2,2,0,0,1-2-2v-36a2,2,0,0,1,2-2h6a1.934,1.934,0,0,1,.592.1,0.972,0.972,0,0,1,.907.03l10,6.01a1.013,1.013,0,0,1,.367,1.38A1,1,0,0,1,150.492,1386.89ZM134,1417h2v-36h-2v36Zm6-36h-2v36h2v-36Zm8,17h8a2,2,0,0,1,2,2v17a2,2,0,0,1-2,2h-8a2,2,0,0,1-2-2v-17A2,2,0,0,1,148,1398Zm0,19h8v-17h-8v17Zm4-1a1,1,0,1,1,1-1A1,1,0,0,1,152,1416Zm0.5-14h-1a0.5,0.5,0,0,1,0-1h1A0.5,0.5,0,0,1,152.5,1402Zm7.5-2h-1v-1h1v1Zm0,4h-1v-1h1v1Zm0,1h1v1h-1v-1Zm0,4h1v1h-1v-1Zm1-2h1v1h-1v-1Zm1-2h1v1h-1v-1Zm0,4h1v1h-1v-1Zm1-2h1v1h-1v-1Zm1-2h1v1h-1v-1Zm0,4h1v1h-1v-1Zm1-2h1v1h-1v-1Zm1-2h1v1h-1v-1Zm0,4h1v1h-1v-1Zm1-2h1v1h-1v-1Zm2-5h-1v-1h1v1Zm0-4h-1v-1h1v1Zm-1,6h-1v-1h1v1Zm0-4h-1v-1h1v1Zm-1,2h-1v-1h1v1Zm0-4h-1v-1h1v1Zm-1,6h-1v-1h1v1Zm0-4h-1v-1h1v1Zm-1,2h-1v-1h1v1Zm0-4h-1v-1h1v1Zm-1,6h-1v-1h1v1Zm0-4h-1v-1h1v1Zm-1,2h-1v-1h1v1Zm0-4h-1v-1h1v1Zm-1,6h-1v-1h1v1Zm0-4h-1v-1h1v1Zm-2-3h1v1h-1v-1Zm1,5h-1v-1h1v1Zm8,8h-1v-1h1v1Zm-1-5h1v1h-1v-1Zm-8,3h-1v-1h1v1Z"
          transform="translate(-132 -1379)"></path>
    <path class="cls-2"
          d="M168,1418h-8v-6h11v3A3,3,0,0,1,168,1418Zm-16-26a3,3,0,0,1,3-3h13a3,3,0,0,1,3,3v3H152v-3Zm5,26H147v-19h10v19Zm-24-38h8v38h-8v-38Z"
          transform="translate(-132 -1379)"></path>
</svg>