<svg xmlns="http://www.w3.org/2000/svg" width="40" height="40" viewBox="0 0 40 40">
    <path class="cls-1"
          d="M1528,806.184l-2.83,13.883a3.5,3.5,0,0,1-.01,6.866l2.82,16.933a1,1,0,1,1-1.98.311L1524.8,837H1518a1,1,0,0,1,0-2h6.47l-1.34-8H1517v-2h6.81a0.146,0.146,0,0,1,.02,0,0.8,0.8,0,0,1,.12,0h0.55a1.5,1.5,0,0,0,0-3H1517v-2h6.18l1.02-5h-8.76a5.912,5.912,0,0,0-2.24-1.57,0.974,0.974,0,0,1,.8-0.43h10.61l0.4-2h-14.02l0.4,2h-2l-1.39-6.816a0.992,0.992,0,0,1,.75-1.186,0.96,0.96,0,0,1,.41,0h17.68a0.96,0.96,0,0,1,.41,0A0.992,0.992,0,0,1,1528,806.184ZM1525.42,809l0.41-2h-15.66l0.41,2h14.84ZM1515,821v5a5.976,5.976,0,0,1-2.08,4.51A3.992,3.992,0,0,1,1515,834v2a3.994,3.994,0,0,1-3,3.859V844a1,1,0,0,1-1,1h-3a1,1,0,0,1-1-1l-0.8-4h-9.4l-0.8,4a1,1,0,0,1-1,1h-3a1,1,0,0,1-1-1v-4.141a3.994,3.994,0,0,1-3-3.859v-2a3.992,3.992,0,0,1,2.08-3.49A5.976,5.976,0,0,1,1488,826v-5a6,6,0,0,1,6-6h15A6,6,0,0,1,1515,821Zm-6,22h1v-3h-1.5Zm-16,0h1l0.5-3H1493v3Zm-3-9v2a2,2,0,0,0,2,2h19a2,2,0,0,0,2-2v-2a2,2,0,0,0-2-2h-19A2,2,0,0,0,1490,834Zm0-13v5a4,4,0,0,0,4,4h15a4,4,0,0,0,4-4v-5a4,4,0,0,0-4-4h-15A4,4,0,0,0,1490,821Zm16.5,4a1.5,1.5,0,1,1,1.5-1.5A1.5,1.5,0,0,1,1506.5,825Zm-10,0a1.5,1.5,0,1,1,1.5-1.5A1.5,1.5,0,0,1,1496.5,825Z"
          transform="translate(-1488 -805)"></path>
    <path class="cls-2"
          d="M1524.5,826H1517v-5h7.5A2.5,2.5,0,0,1,1524.5,826ZM1511,839h-19a3,3,0,0,1-3-3v-1h25v1A3,3,0,0,1,1511,839Zm-2-8h-15a5,5,0,0,1-5-5v-5a5,5,0,0,1,5-5h15a5,5,0,0,1,5,5v5A5,5,0,0,1,1509,831Zm-12.5-9a2.5,2.5,0,1,0,2.5,2.5A2.5,2.5,0,0,0,1496.5,822Zm10,0a2.5,2.5,0,1,0,2.5,2.5A2.5,2.5,0,0,0,1506.5,822Z"
          transform="translate(-1488 -805)"></path>
</svg>