<svg xmlns="http://www.w3.org/2000/svg" width="40" height="40" viewBox="0 0 40 40">
    <path class="cls-1"
          d="M1102,4069.03c-0.01.05-.01,0.11-0.02,0.16A4.986,4.986,0,0,1,1097,4074h-4v2h1a1,1,0,0,1,1,1l0.91,8.15a4.806,4.806,0,0,1,.09.85,4,4,0,0,1-8,0,4.806,4.806,0,0,1,.09-0.85L1089,4077a1,1,0,0,1,1-1h1v-2h-4a4.991,4.991,0,0,1-4.98-4.8,1.1,1.1,0,0,1-.02-0.18V4069h0a1.229,1.229,0,0,1,.02-0.27l4-13.97A4.991,4.991,0,0,1,1091,4050h2a4.991,4.991,0,0,1,4.98,4.76l4,13.97a1.229,1.229,0,0,1,.02.27h0v0.03Zm-11.94,16.51a1.759,1.759,0,0,0-.06.46,2,2,0,0,0,4,0,1.759,1.759,0,0,0-.06-0.46L1093,4078h-2Zm5.96-30.27a1.229,1.229,0,0,1-.02-0.27h0a3,3,0,0,0-3-3h-2a3,3,0,0,0-3,3h0a1.229,1.229,0,0,1-.02.27l-3.97,13.84A2.992,2.992,0,0,0,1087,4072h4v-7a1,1,0,0,1,2,0v7h4a2.99,2.99,0,0,0,2.99-2.88ZM1078,4079a7.971,7.971,0,0,0,6.24-3H1086v0.98a10,10,0,1,1-8-15.98,9.843,9.843,0,0,1,2.99.46l-0.66,1.89a7.824,7.824,0,0,0-2.33-.35A8,8,0,0,0,1078,4079Zm0-22a14,14,0,1,0,8,25.48v2.36a16,16,0,1,1-3.03-29.04l-0.66,1.88A13.94,13.94,0,0,0,1078,4057Z"
          transform="translate(-1062 -4050)"></path>
    <path class="cls-2"
          d="M1100.89,4068.11a3.74,3.74,0,0,1,.11.89,4,4,0,0,1-4,4h-6a3.973,3.973,0,0,1-3.49-5.92L1091,4054a2.006,2.006,0,0,1,2-2h2a2,2,0,0,1,1.48,3.34L1101,4068Zm-21.44,11.96a7.555,7.555,0,1,1,0-15.11,7.832,7.832,0,0,1,1.29.12l-0.67,3.92,0.02,0.02a6.263,6.263,0,0,0-.09.98,6,6,0,0,0,6,6h0.14A7.535,7.535,0,0,1,1079.45,4080.07Z"
          transform="translate(-1062 -4050)"></path>
</svg>