<svg xmlns="http://www.w3.org/2000/svg" width="40" height="40" viewBox="0 0 40 40">
    <path class="cls-1"
          d="M1267.34,2436.92a1.029,1.029,0,0,1-1.32-.54l-2.92-7.02a0.922,0.922,0,0,1-.07-0.36H1263v-3.5a1.5,1.5,0,0,0-3,0v6.64a3.98,3.98,0,0,1,1.3,7.12c1.6,3.18,2.7,9.11,2.7,13.74,0,6.63-2.24,9-5,9s-5-2.37-5-9c0-4.63,1.1-10.56,2.7-13.74a3.98,3.98,0,0,1,1.3-7.12v-6.64a3.5,3.5,0,0,1,7,0v3.17l2.91,6.97A0.981,0.981,0,0,1,1267.34,2436.92ZM1256,2453c0,5.52,1.34,7,3,7s3-1.48,3-7c0-4.45-.87-10.81-2.08-13.12a3.587,3.587,0,0,1-1.84,0C1256.87,2442.19,1256,2448.55,1256,2453Zm3-19a2,2,0,1,0,2,2A2.006,2.006,0,0,0,1259,2434Zm-12.5,9a4.507,4.507,0,0,1,4.5,4.47h0c-0.95,8.38-4.34,14.53-8,14.53h-7c-4.42,0-8-8.95-8-20s3.58-20,8-20h7c3.65,0,7.04,6.13,8,14.5h0a4.5,4.5,0,0,1-9,0h0.01a27.985,27.985,0,0,0-2.51-9.1c-1.51,3.27-2.5,8.58-2.5,14.6s0.99,11.33,2.5,14.6a28.422,28.422,0,0,0,2.52-9.13H1242A4.507,4.507,0,0,1,1246.5,2443Zm-2.5-6.5h0a2.5,2.5,0,0,0,5,0h0.02c-0.77-7.25-3.35-12.5-6.02-12.5a3.235,3.235,0,0,0-2.45,1.58A28.545,28.545,0,0,1,1244,2436.5Zm-9,5.5c0-7.93,1.85-14.77,4.53-18H1236c-3.31,0-6,8.06-6,18s2.69,18,6,18h3.53C1236.85,2456.77,1235,2449.93,1235,2442Zm5.55,16.42A3.235,3.235,0,0,0,1243,2460h0c2.68,0,5.26-5.27,6.03-12.53H1249a2.5,2.5,0,0,0-5,0h0A28.536,28.536,0,0,1,1240.55,2458.42Zm-6.05-.42a1.5,1.5,0,1,1,1.5-1.5A1.5,1.5,0,0,1,1234.5,2458Zm-1.5-30.5a1.5,1.5,0,1,1,1.5,1.5A1.5,1.5,0,0,1,1233,2427.5Zm1,7a1.5,1.5,0,1,1-1.5-1.5A1.5,1.5,0,0,1,1234,2434.5Zm-1.5,16.5a1.5,1.5,0,1,1,1.5-1.5A1.5,1.5,0,0,1,1232.5,2451Zm-0.5-11a2,2,0,1,1-2,2A2.006,2.006,0,0,1,1232,2440Z"
          transform="translate(-1228 -2422)"></path>
    <path class="cls-2"
          d="M1262,2460l-2,1c-1.21-1.17-2-3.45-2-7.28,0-4.47,1.09-10.29,2.64-13.08L1261,2441l1,3,1,6v8Zm-15-3-2,3-1,1h-2l-1-1-2-2,1-1,1-3,2-5,1-4,3-1a8.319,8.319,0,0,1,2,1,3.4,3.4,0,0,0,1,1v5l-1,3Zm-1-17-2-1-1-3-1-6-1-2-1-2,2-3h2l2,2,3,6,1,4v3l-1,1Z"
          transform="translate(-1228 -2422)"></path>
</svg>