<svg xmlns="http://www.w3.org/2000/svg" width="40" height="40" viewBox="0 0 40 40">
    <path class="cls-1"
          d="M347.213,2090h-0.394a0.844,0.844,0,0,1,.181.5c0,1.38-4.029,2.5-9,2.5s-9-1.12-9-2.5a0.844,0.844,0,0,1,.181-0.5h-0.394A10.988,10.988,0,0,1,337,2073.05V2066a1,1,0,0,1,2,0v7.05A10.988,10.988,0,0,1,347.213,2090ZM338,2091c3.314,0,6-.22,6-0.5s-2.686-.5-6-0.5-6,.22-6,0.5S334.686,2091,338,2091Zm-9-7a8.917,8.917,0,0,0,1.593,5.08,14.031,14.031,0,0,1,3.025-.76,11.354,11.354,0,0,1,.489-12.43A9.012,9.012,0,0,0,329,2084Zm9-9a3,3,0,0,0-.3.02,9.415,9.415,0,0,0-1.87,13.06c0.7-.05,1.42-0.08,2.17-0.08a21.681,21.681,0,0,1,7.407,1.08A8.975,8.975,0,0,0,338,2075Zm-12.947,7.2A11.569,11.569,0,0,0,323,2082c-0.343,0-.68.02-1.015,0.05a13.451,13.451,0,0,0-3.182,17.18,36.721,36.721,0,0,1,4.2-.23c4.383,0,8.156.7,9.924,1.71a11.871,11.871,0,0,0,2.029-5.71h2.008a13.932,13.932,0,0,1-2.481,7H334c0,1.66-4.925,3-11,3s-11-1.34-11-3h-0.48a13.978,13.978,0,0,1,10.49-21.95c0-.02-0.01-0.03-0.01-0.05v-14a1,1,0,0,1,2,0v14c0,0.02-.009.03-0.009,0.05,0.422,0.03.841,0.08,1.252,0.15C325.147,2080.85,325.09,2081.52,325.053,2082.2ZM323,2103c4.418,0,8-.45,8-1s-3.582-1-8-1-8,.45-8,1S318.582,2103,323,2103Zm-12-9a11.9,11.9,0,0,0,2.079,6.71,12.583,12.583,0,0,1,3.662-1.18,15.226,15.226,0,0,1,1.6-16.59A12,12,0,0,0,311,2094Z"
          transform="translate(-309 -2065)"></path>
    <path class="cls-2"
          d="M347,2088l-1,2-2-1h-4.253a12.99,12.99,0,0,1-2.77-8.13A9.491,9.491,0,0,1,340,2074h1l3,2,3,4,1,4v2Zm-16,14-2-2h-6s-3.356-3-3-9,3.619-9.12,5-10v7.79l3.211,4.9L331,2095h4v5l-2,2h-2Z"
          transform="translate(-309 -2065)"></path>
</svg>