<svg xmlns="http://www.w3.org/2000/svg" width="40" height="40" viewBox="0 0 40 40">
    <path class="cls-1" d="M730.5,1247a7.518,7.518,0,0,1-4.51-1.29,6.648,6.648,0,0,1-2.99,1.16v-1.97c1.179-.16,2-0.5,2-0.9v-31.7a9.1,9.1,0,0,1-7,0v2.7h-2v-2.7a9.1,9.1,0,0,1-7,0v2.7h-2v-5c0-1.66,2.462-3,5.5-3a7.57,7.57,0,0,1,4.5,1.28,8.55,8.55,0,0,1,9,0,7.57,7.57,0,0,1,4.5-1.28c3.038,0,5.5,1.34,5.5,3v34C736,1245.66,733.538,1247,730.5,1247Zm-18-38c-1.933,0-3.5.45-3.5,1s1.567,1,3.5,1,3.5-.45,3.5-1S714.433,1209,712.5,1209Zm9,0c-1.933,0-3.5.45-3.5,1s1.567,1,3.5,1,3.5-.45,3.5-1S723.433,1209,721.5,1209Zm9,0c-1.933,0-3.5.45-3.5,1s1.567,1,3.5,1,3.5-.45,3.5-1S732.433,1209,730.5,1209Zm3.5,3.31a9.222,9.222,0,0,1-7,0V1244c0,0.55,1.567,1,3.5,1s3.5-.45,3.5-1v-31.69ZM721,1247H696v-30h25v30Zm-2-5h-3a1,1,0,0,1,0-2h3v-16H705a1,1,0,0,1,0-2h14v-3H698v3h3a1,1,0,0,1,0,2h-3v16h14a1,1,0,0,1,0,2H698v3h21v-3Zm-17.573-5.1a1.019,1.019,0,0,1-.427.1c-0.038,0-.07-0.02-0.106-0.02a1,1,0,0,1-.244-0.05l-0.064-.03a0.821,0.821,0,0,1-.278-0.18,0.041,0.041,0,0,0-.023-0.02,1.072,1.072,0,0,1-.178-0.27c-0.013-.03-0.025-0.05-0.036-0.08s-0.04-.07-0.05-0.11a0.967,0.967,0,0,1-.006-0.17A0.418,0.418,0,0,1,700,1236v-6c0-.02.009-0.03,0.01-0.05a1,1,0,0,1,.056-0.28c0.011-.03.018-0.06,0.032-0.09a1.1,1.1,0,0,1,.171-0.25c0.014-.02.025-0.03,0.04-0.05a0.791,0.791,0,0,1,.238-0.16,0.438,0.438,0,0,1,.1-0.05c0.023-.01.039-0.02,0.063-0.03l7.56-2.02c0.014-.01.028,0,0.042-0.01a1.155,1.155,0,0,1,.186,0,1.155,1.155,0,0,1,.186,0c0.014,0.01.028,0,.042,0.01l7.56,2.02c0.024,0.01.04,0.02,0.063,0.03a0.438,0.438,0,0,1,.1.05,0.791,0.791,0,0,1,.238.16c0.015,0.02.026,0.03,0.04,0.05a1.1,1.1,0,0,1,.171.25c0.014,0.03.021,0.06,0.032,0.09a1,1,0,0,1,.056.28c0,0.02.01,0.03,0.01,0.05v6a0.418,0.418,0,0,1-.015.07,0.967,0.967,0,0,1-.006.17c-0.01.04-.036,0.07-0.05,0.11s-0.023.05-.036,0.08a1.072,1.072,0,0,1-.178.27,0.041,0.041,0,0,0-.023.02,0.821,0.821,0,0,1-.278.18l-0.064.03a1,1,0,0,1-.244.05c-0.036,0-.068.02-0.106,0.02a1.019,1.019,0,0,1-.427-0.1L708.5,1235Zm7.3-3.88L715,1234.7v-3.96l-6.5-1.74-6.5,1.74v3.96l6.272-1.68c0.014-.01.028,0,0.042-0.01a1.155,1.155,0,0,1,.186,0,1.155,1.155,0,0,1,.186,0C708.7,1233.02,708.714,1233.01,708.728,1233.02Z" transform="translate(-696 -1207)"/>
    <path class="cls-2" d="M730,1246v-34l5-1v34Zm-33-23h23v18H697v-18Zm4,13,7-2,8,2v-6l-8-2-7,3v5Z" transform="translate(-696 -1207)"/>
</svg>