<svg xmlns="http://www.w3.org/2000/svg" width="40" height="40" viewBox="0 0 40 40">
    <path class="cls-1"
          d="M1337,376h-1a10,10,0,0,1-10,10h0v3a3,3,0,0,1-3,3h-8a3,3,0,0,1-3-3v-3a10,10,0,0,1-10-10h-1a2,2,0,0,1-2-2v-5a2,2,0,0,1,2-2h6v-2h-2a1,1,0,0,1,0-2h6a1,1,0,0,1,0,2h-2v2h7v-4.277a1.983,1.983,0,0,1-1-1.723v-2a1.983,1.983,0,0,1,1-1.723V355a3,3,0,0,1,6,0v2.277a1.983,1.983,0,0,1,1,1.723v2a1.983,1.983,0,0,1-1,1.723V367h7v-2h-2a1,1,0,0,1,0-2h6a1,1,0,0,1,0,2h-2v2h6a2,2,0,0,1,2,2v5A2,2,0,0,1,1337,376Zm-23,13a1,1,0,0,0,1,1h8a1,1,0,0,0,1-1v-3h-10v3Zm-2-5h14a8,8,0,0,0,8-8h-25.91a5.981,5.981,0,0,0,3.74,4.581v0a0.991,0.991,0,0,1-.7,1.855v0.021a7.987,7.987,0,0,1-5.05-6.459H1304A8,8,0,0,0,1312,384Zm8-29a1,1,0,0,0-2,0v2h2v-2Zm1,4.5a0.5,0.5,0,0,0-.5-0.5h-3a0.5,0.5,0,0,0-.5.5v1a0.5,0.5,0,0,0,.5.5h3a0.5,0.5,0,0,0,.5-0.5v-1Zm-3,3.5v4h2v-4h-2Zm19,6h-36v5h36v-5Z"
          transform="translate(-1299 -352)"></path>
    <path class="cls-2"
          d="M1334,380l-3,4-4,1h-17l-3-1-2-2-2-3h31.33Zm-34-11h38v5h-38v-5Z"
          transform="translate(-1299 -352)"></path>
</svg>