<svg xmlns="http://www.w3.org/2000/svg" width="40" height="40.031" viewBox="0 0 40 40.031">
    <path class="cls-1"
          d="M148,832v11a2,2,0,0,1-2,2H132a2,2,0,0,1-2-2V832a1.992,1.992,0,0,1,1.027-1.737A1.905,1.905,0,0,1,131,830v-7.277A1.994,1.994,0,0,1,130,821v-2a1.944,1.944,0,0,0,0-2l1-4a2,2,0,0,1,2-2h0.1a4.993,4.993,0,0,1,1.7-2.839l-3.095-1.232a1,1,0,1,1,.562-1.919l5.03,2a0.837,0.837,0,0,1,.084.044A4.859,4.859,0,0,1,138,807h3a3.927,3.927,0,0,1,.524.063A2.016,2.016,0,0,1,142,807h4a1,1,0,0,1,0,2v2a1.905,1.905,0,0,1-.027.263A1.992,1.992,0,0,1,147,813l1,4a1.944,1.944,0,0,0,0,2v2a1.994,1.994,0,0,1-1,1.723V830a1.905,1.905,0,0,1-.027.263A1.992,1.992,0,0,1,148,832Zm-16,11h9v-8a1,1,0,0,1,2,0v8h3V832H132v11Zm1-13h12v-7H133v7Zm7-21h-2a2.99,2.99,0,0,0-2.816,2H140v-2Zm4,0h-2v2h2v-2Zm1,4H133l-1,4h14Zm1,6H132v2h14v-2Zm-21.5,24a14.478,14.478,0,0,0,3.5-.443V843a4.941,4.941,0,0,0,.27,1.55,16.5,16.5,0,1,1,0-32.1A4.941,4.941,0,0,0,128,814v0.443a13.877,13.877,0,0,0-5.773-.252A4.136,4.136,0,0,0,122,815.5a4.714,4.714,0,0,0,.906,2.693A19.719,19.719,0,0,1,128,816.4v2.059a17.88,17.88,0,0,0-3.637,1.285A14.519,14.519,0,0,0,128,821.9v2.07a17.013,17.013,0,0,1-5.4-3.265,18.048,18.048,0,0,0-2.591,1.887l7.693,7.688a1,1,0,1,1-1.411,1.413l-7.688-7.683a18.113,18.113,0,0,0-2.273,3.189c3.1,3,5.274,8.783,5.6,15.564A14.476,14.476,0,0,0,124.5,843ZM110,828.5a14.416,14.416,0,0,0,2.007,7.335,19.8,19.8,0,0,1,1.838-8.152A4.573,4.573,0,0,0,111.5,827a4.2,4.2,0,0,0-1.443.274C110.023,827.678,110,828.086,110,828.5Zm11.235-9.33A6.378,6.378,0,0,1,120,815.5a5.113,5.113,0,0,1,.071-0.792,14.54,14.54,0,0,0-5.079,2.862l3.608,3.606A20.293,20.293,0,0,1,121.235,819.17Zm-4.045,3.42-3.611-3.608a14.49,14.49,0,0,0-3.165,6.14A5.41,5.41,0,0,1,111.5,825a6.236,6.236,0,0,1,3.24.962A20.168,20.168,0,0,1,117.19,822.59ZM115.44,829a17.8,17.8,0,0,0-1.44,7,17.568,17.568,0,0,0,.236,2.741,14.512,14.512,0,0,0,5.675,3.506C119.55,836.482,117.838,831.593,115.44,829Z"
          transform="translate(-108 -804.969)"></path>
    <path class="cls-2"
          d="M132,822l-1-4,15-1,1,2-1,3H132Zm9-14h4v4h-4v-4Zm-28,17a11.959,11.959,0,0,1,15-11.607v23.214A11.959,11.959,0,0,1,113,825Zm33,19-15-1V831l16,1Z"
          transform="translate(-108 -804.969)"></path>
</svg>